<mxfile host="app.diagrams.net" modified="2023-09-08T23:54:54.781Z" agent="Mozilla/5.0 (Macintosh; Intel Mac OS X 10_15_7) AppleWebKit/537.36 (KHTML, like Gecko) Chrome/116.0.0.0 Safari/537.36" version="21.7.4" etag="Vl6wrwD9AjYeOHlUyGSu" type="github">
  <diagram name="第 1 页" id="47Eh0a-qUwsT_jrITTk_">
    <mxGraphModel>
      <root>
        <mxCell id="0" />
        <mxCell id="1" parent="0" />
      </root>
    </mxGraphModel>
  </diagram>
</mxfile>
